<?xml version="1.0" encoding="utf-8"?>
<!-- Generator: Adobe Illustrator 18.1.1, SVG Export Plug-In . SVG Version: 6.00 Build 0)  -->
<svg version="1.1" id="Layer_1" xmlns="http://www.w3.org/2000/svg" xmlns:xlink="http://www.w3.org/1999/xlink" x="0px" y="0px"
	 viewBox="0 0 612 792" enable-background="new 0 0 612 792" xml:space="preserve">
<g>
	<path stroke="#000000" stroke-width="3" d="M165.8,377.2c-5.9,10.9-11.4,21.5-17.2,31.8c-6.5,11.5-13.2,22.8-19.9,34.2
		c-1.6,2.7-3.4,5.2-5.4,7.6c-3.7,4.4-8.5,6.4-14.2,4.4c-5.8-2-9-6.5-9.3-12.4c-0.2-3.9,0.3-8.1,1.7-11.7c6-15.1,12.5-30,18.8-45
		c0.9-2.2,1.9-4.4,2.8-6.5c-14-9.8-20.1-24.9-27.6-39c-2.1-4-1.8-8.3-0.4-12.6c2.4-7.1,4.9-14.2,7-21.3c1-3.3,1.3-6.9,1.7-10.3
		c1.2-10.2,3.7-20,10.5-29.1c-3.7-2.2-7.1-4.4-10.6-6.4c-3.7-2.1-4.6-5.5-1.5-7c1.5-0.7,3.8-0.9,5.4-0.3c3.8,1.6,7.5,3.8,11.1,5.8
		c0.7,0.4,1.3,0.9,1.7,1.1c4.5-2.3,8.6-4.7,13-6.7c1.4-0.6,3.3-0.7,4.9-0.3c1,0.2,2.3,1.6,2.4,2.6c0.1,1-1,2.1-1.7,3.1
		c-0.2,0.3-0.7,0.4-1.1,0.5c-14.7,5.6-21.9,17-23.9,31.8c-1.7,12-4,23.6-8.9,34.7c-2.4,5.5-2.1,10.8,1.2,15.9
		c5.2,8.2,10,16.6,15.4,24.6c3.4,5.1,7.1,4.3,9.7-1.4c2-4.6,1.4-9.2,0.2-13.8c-1-3.9-2-7.7-2.8-11.6c-0.9-5,0.6-9.4,4.6-12.6
		c6.9-5.7,13.3-11.8,17.1-20.2c1.1-2.3,4.1-2.9,6.3-1.8c2.2,1.1,3,3.3,1.5,5.9c-2.8,4.6-6,8.9-9,13.4c-0.4,0.6-1,1.2-1.7,2.1
		c13.3,6.4,18.7,17.8,22.3,31.1c7.5,28.2,20.8,54.2,32.7,80.6c0.9,2.1,2.3,4,3.8,5.7c1.7,1.9,3.9,2.2,6.3,1.3c2.3-0.9,2.7-3.1,2.4-5
		c-1.1-6.1-1.9-12.3-3.9-18.1c-9.7-28-13-57-15.3-86.2c-0.6-8.2-2.8-16.3-4.2-24.5c-1.1-6.8-2.4-13.6-3.3-20.4
		c-1.3-11-3.4-21.7-9-31.5c-3.8-6.6-9.1-11.6-15.7-15.3c-1-0.5-2-1-2.8-1.7c-1.9-1.6-2.5-3.6-1.2-5.9c1.3-2.3,3.4-2.8,5.7-1.7
		c7.8,3.6,14.2,8.9,19.1,16c8.7,12.7,12,27.1,13,42.2c0.6,8.4,2.9,16.4,4.9,24.6c1.8,7.5,2.6,15.3,3.3,23.1
		c1.8,20.2,3.7,40.4,9.1,60.1c2.5,9.1,5.5,18,7.9,27c1.1,4.4,1.6,9.1,1.6,13.6c-0.1,6.2-4.2,11.2-9.6,12.8
		c-6.2,1.8-11.6,0.3-15.7-4.6c-2.3-2.7-4.1-5.9-5.6-9.2c-6-13.3-11.7-26.7-17.5-40.1C172.4,392.9,169.2,385.2,165.8,377.2z
		 M160.9,363.9c-1.3-13.7-6.1-24.1-18.3-30c-2.4-1.2-4.3-0.2-4.6,2.5c-0.1,1.4,0,2.8,0.3,4.2c0.8,3.6,1.9,7.1,2.8,10.7
		c2,8.9,1,17.1-5.9,23.8c-0.7,0.7-1.1,1.8-1.6,2.8c-2.6,6.2-5.2,12.3-7.8,18.5c-5.5,13.2-11,26.3-16.3,39.6c-0.8,2.1-0.8,4.8-0.3,7
		c0.9,4,4.8,4.8,7.4,1.6c2-2.6,3.9-5.4,5.5-8.2c13.2-22,26.2-44.2,37-67.6C159.9,367,160.5,365,160.9,363.9z"/>
</g>
<g display="none">
	<path display="inline" stroke="#000000" d="M323.8,257.3c-1.2,2.2-2.3,4.3-3.5,6.4c-1.3,2.3-2.7,4.6-4,6.9c-0.3,0.5-0.7,1-1.1,1.5
		c-0.8,0.9-1.7,1.3-2.9,0.9c-1.2-0.4-1.8-1.3-1.9-2.5c0-0.8,0.1-1.6,0.4-2.4c1.2-3,2.5-6,3.8-9.1c0.2-0.4,0.4-0.9,0.6-1.3
		c-2.8-2-4-5-5.5-7.8c-0.4-0.8-0.4-1.7-0.1-2.5c0.5-1.4,1-2.8,1.4-4.3c0.2-0.7,0.3-1.4,0.3-2.1c0.2-2.1,0.7-4,2.1-5.9
		c-0.7-0.5-1.4-0.9-2.1-1.3c-0.7-0.4-0.9-1.1-0.3-1.4c0.3-0.2,0.8-0.2,1.1-0.1c0.8,0.3,1.5,0.8,2.2,1.2c0.1,0.1,0.3,0.2,0.3,0.2
		c0.9-0.5,1.7-0.9,2.6-1.3c0.3-0.1,0.7-0.1,1-0.1c0.2,0,0.5,0.3,0.5,0.5c0,0.2-0.2,0.4-0.3,0.6c0,0.1-0.1,0.1-0.2,0.1
		c-2.9,1.1-4.4,3.4-4.8,6.4c-0.3,2.4-0.8,4.8-1.8,7c-0.5,1.1-0.4,2.2,0.2,3.2c1.1,1.6,2,3.3,3.1,5c0.7,1,1.4,0.9,1.9-0.3
		c0.4-0.9,0.3-1.8,0-2.8c-0.2-0.8-0.4-1.6-0.6-2.3c-0.2-1,0.1-1.9,0.9-2.5c1.4-1.1,2.7-2.4,3.4-4.1c0.2-0.5,0.8-0.6,1.3-0.4
		c0.4,0.2,0.6,0.7,0.3,1.2c-0.6,0.9-1.2,1.8-1.8,2.7c-0.1,0.1-0.2,0.2-0.3,0.4c2.7,1.3,3.8,3.6,4.5,6.3c1.5,5.7,4.2,10.9,6.6,16.2
		c0.2,0.4,0.5,0.8,0.8,1.1c0.3,0.4,0.8,0.5,1.3,0.3c0.5-0.2,0.5-0.6,0.5-1c-0.2-1.2-0.4-2.5-0.8-3.6c-1.9-5.6-2.6-11.5-3.1-17.3
		c-0.1-1.7-0.6-3.3-0.8-4.9c-0.2-1.4-0.5-2.7-0.7-4.1c-0.3-2.2-0.7-4.4-1.8-6.3c-0.8-1.3-1.8-2.3-3.2-3.1c-0.2-0.1-0.4-0.2-0.6-0.3
		c-0.4-0.3-0.5-0.7-0.2-1.2c0.3-0.5,0.7-0.6,1.1-0.3c1.6,0.7,2.9,1.8,3.8,3.2c1.7,2.5,2.4,5.5,2.6,8.5c0.1,1.7,0.6,3.3,1,4.9
		c0.4,1.5,0.5,3.1,0.7,4.6c0.4,4.1,0.8,8.1,1.8,12.1c0.5,1.8,1.1,3.6,1.6,5.4c0.2,0.9,0.3,1.8,0.3,2.7c0,1.2-0.8,2.3-1.9,2.6
		c-1.2,0.4-2.3,0.1-3.2-0.9c-0.5-0.6-0.8-1.2-1.1-1.8c-1.2-2.7-2.4-5.4-3.5-8.1C325.1,260.4,324.4,258.9,323.8,257.3z M322.8,254.6
		c-0.3-2.8-1.2-4.9-3.7-6c-0.5-0.2-0.9,0-0.9,0.5c0,0.3,0,0.6,0.1,0.8c0.2,0.7,0.4,1.4,0.6,2.2c0.4,1.8,0.2,3.4-1.2,4.8
		c-0.1,0.1-0.2,0.4-0.3,0.6c-0.5,1.2-1,2.5-1.6,3.7c-1.1,2.7-2.2,5.3-3.3,8c-0.2,0.4-0.2,1-0.1,1.4c0.2,0.8,1,1,1.5,0.3
		c0.4-0.5,0.8-1.1,1.1-1.6c2.7-4.4,5.3-8.9,7.4-13.6C322.6,255.2,322.7,254.8,322.8,254.6z"/>
</g>
</svg>
