<?xml version="1.0" encoding="iso-8859-1"?>
<!-- Generator: Adobe Illustrator 18.0.0, SVG Export Plug-In . SVG Version: 6.00 Build 0)  -->
<!DOCTYPE svg PUBLIC "-//W3C//DTD SVG 1.1//EN" "http://www.w3.org/Graphics/SVG/1.1/DTD/svg11.dtd">
<svg version="1.1" id="Capa_1" xmlns="http://www.w3.org/2000/svg" xmlns:xlink="http://www.w3.org/1999/xlink" x="0px" y="0px"
	 viewBox="0 0 290 290" style="enable-background:new 0 0 290 290;" xml:space="preserve">
<path d="M285.857,52.128l-42.557,42.557c-3.887,3.887-10.184,3.887-14.072,0l-33.914-33.914c-3.887-3.887-3.887-10.186,0-14.071
	l42.557-42.556c-26.965-9.211-58.012-3.066-79.518,18.441c-22.459,22.457-28.162,55.313-17.129,83.063l-45.361,45.359
	c-25.279-9.078-54.639-3.505-74.889,16.747c-27.967,27.966-27.965,73.308,0,101.271c27.961,27.964,73.303,27.966,101.27,0
	c20.252-20.253,25.826-49.614,16.748-74.893l45.359-45.359c27.75,11.032,60.607,5.33,83.065-17.127
	C288.922,110.141,295.068,79.095,285.857,52.128z M99.793,246.573L61.291,256.89l-28.182-28.181l10.318-38.501l38.5-10.318
	l28.184,28.182L99.793,246.573z"/>
<g>
</g>
<g>
</g>
<g>
</g>
<g>
</g>
<g>
</g>
<g>
</g>
<g>
</g>
<g>
</g>
<g>
</g>
<g>
</g>
<g>
</g>
<g>
</g>
<g>
</g>
<g>
</g>
<g>
</g>
</svg>
